<?xml version="1.0" encoding="utf-8"?>
<!-- Generator: Adobe Illustrator 17.0.0, SVG Export Plug-In . SVG Version: 6.00 Build 0)  -->
<!DOCTYPE svg PUBLIC "-//W3C//DTD SVG 1.1//EN" "http://www.w3.org/Graphics/SVG/1.1/DTD/svg11.dtd">
<svg version="1.1" id="Layer_1" xmlns="http://www.w3.org/2000/svg" xmlns:xlink="http://www.w3.org/1999/xlink" x="0px" y="0px"
	 width="32px" height="32px" viewBox="0 0 32 32" enable-background="new 0 0 32 32" xml:space="preserve">
<path fill="#FF0000" stroke="#FF0000" stroke-width="0.25" stroke-miterlimit="10" d="M30.769,17.464l0.045-0.059l0.091-0.004
	l-0.013-0.032l0.021-0.005l-0.021,0.005l-0.42-5.641l0.215-0.067l-0.054-0.154l-0.179,0.065v-0.076v0.076l-4.297,1.39l-0.04-0.035
	l0.007-0.073l0.015,0.008l0.921-6.859l3.671,5.535l-3.589-5.692l-0.018,0.014l-5.131-3.402l0.042-0.019L21.993,2.36l0.015-0.073
	L21.973,2.28V2.261V2.28l-5.979-1.011l5.79,1.136l-5.663,3.786l-0.045-0.017l0.001-0.016L16,6.114l-0.042-4.466v4.44L9.978,2.592
	l6.17-1.421l-0.03-0.158L9.844,2.462L5.071,6.297L5.069,6.234L4.949,6.247H4.942l0.04-0.053L4.843,6.106l-3.073,5.009l-0.082-0.037
	l-0.065,0.154l4.507,1.53L6.1,12.8l-0.012-0.015L1.265,17.24l0.256-6.24L1.098,17.3l0.089,0.006v0.01l-0.069,0.011l1.806,6.227
	l0.033,0.023l-0.019,0.018l0.019-0.018l4.021,4.731l-0.152,0.202l-0.051-0.016l0.051,0.016l-0.374,0.488l0.119,0.096l0.398-0.529
	l5.785,2.333l0.015-0.019l6.504-0.173l-6.462,0.135l3.118-4.445l3.38,4.317l-0.015,0.041l0.067,0.035l0.027,0.073l0.036-0.011
	l0.009,0.006l-0.009-0.006l5.314-2.454l0.471,0.645l0.125-0.088l-0.286-0.402l3.836-5.014l-0.024-0.017l2.009-6.107l-2.03,6.045
	l-3.727-4.129l5.617-1.909L30.769,17.464z M30.465,11.731l0.27,5.483l-4.48-4.172L30.465,11.731z M26.156,12.961l-0.054,0.01
	l0.013-0.044L26.156,12.961z M21.399,14.498l0.055-0.16l0.106-0.046v0.154L21.399,14.498z M19.54,20.743l-3.308-4.568l5.155-1.611
	l-1.77,6.278L19.54,20.743h0.055H19.54z M19.267,20.752l-6.49,0.242l0.069-0.097l0.028,0.053l-0.022-0.053l3.107-4.303v0.185h0.159
	l-0.013-0.393l0.051-0.064l3.343,4.421l-0.167,0.01l-3.007-4.106L19.267,20.752z M15.884,26.171l-6.231-1.19l2.882-3.847
	l3.404,4.956L15.884,26.171z M9.468,25.056L9.45,25.074l-0.019-0.06l0.04,0.008L9.468,25.056z M12.58,20.985l-0.112,0.07
	l0.031,0.032l-2.958,3.87l-0.052-0.01l-0.018,0.075l-0.04-0.015L6.997,19.26l0.046-0.059L7,19.164l0.072,0.051l0.024-0.046
	l5.556,1.653l-5.462-1.78l3.289-4.548l2.31,6.224L12.58,20.985z M6.157,12.8L6.149,12.77l0.069,0.027L6.157,12.8z M10.508,8.577
	h0.007v0.039l-0.063-0.025l0.063,0.026l0.148,5.628l-4.44-1.567l4.182-4.136l0.063,0.029l0.028-0.078L10.508,8.577z M21.657,8.571
	l-0.061,0.036l0,0L21.56,8.623V8.571v0.052l-5.44,2.712l-0.069-0.043v-0.085l0.025-0.008l-0.016-0.024l0.06-0.116l-0.069-0.028
	l-0.039-4.685l0.104-0.05l-0.034-0.081l0.037-0.023l5.475,2.294V8.56L21.657,8.571z M21.458,14.301l-5.353,1.744l-0.052-4.753
	l0.069,0.043l-0.016,0.003l0.016-0.003l5.44,2.92v0.013L21.458,14.301l0.021-0.056L21.458,14.301z M15.958,11.272v4.842
	l-4.991-1.759L15.958,11.272z M10.954,14.346l-0.277-0.101V8.687l5.216,2.442L10.954,14.346z M16.121,11.335l5.44-2.54v5.432
	L16.121,11.335z M15.958,10.985l-5.282-2.302V8.581l5.282-2.216V10.985z M6.218,12.678L6.13,12.649L5.071,6.305l5.173,2.168
	L6.218,12.678z M10.663,14.311l0.013,0.121v-0.121l0.222,0.073l-0.235,0.156l-0.048-0.134l-0.1,0.035l0.002-0.009l-0.125-0.093
	l-3.297,4.565L6.231,12.8L10.663,14.311z M6.872,19.382l2.553,5.625l-6.34-1.563L6.872,19.382z M10.663,14.54l0.237-0.148
	l5.058,1.721v0.217l-1.651,2.395l-1.519,1.985L10.663,14.54z M13.923,19.284l-1.097,1.57l-0.019-0.08L13.923,19.284z M16.231,16.175
	l-0.003-0.001l5.227-1.835l-0.055,0.16L16.231,16.175z M21.568,8.796l0.085-0.041l4.368,4.197l0.061-0.061l0.034,0.037l-0.013,0.044
	l-4.38,1.427L21.568,8.796z M26.116,12.927l-0.034-0.04l0.031-0.034h0.01L26.116,12.927z M25.997,12.715l-4.34-3.961L21.7,8.738
	l-0.006-0.01l5.31-2.788l0.043,0.058L25.997,12.715z M27.058,5.861L21.75,8.522l0.218-6.046l0.025-0.019L27.058,5.861z
	 M21.964,2.479l-0.356,5.841l-5.487-2.129L21.964,2.479z M16.118,6.191l-0.04,0.022l-0.016-0.037l0.003-0.002L16.118,6.191z
	 M15.884,6.226l-5.207,2.351V8.522h-0.013L9.875,2.633l0.042-0.03l0.058-0.011L15.884,6.226z M9.873,2.635l0.623,5.77L5.071,6.297
	L9.873,2.635z M4.942,6.247H4.936H4.942L4.942,6.247z M4.908,6.297l1.213,6.349l-4.349-1.53L4.908,6.297z M6.13,12.764l0.016,0.006
	L6.157,12.8l-0.039,0.008L6.1,12.8L6.13,12.764z M6.1,12.981l0.995,5.933L7.034,18.99l-5.733-1.614l-0.03-0.094L1.258,17.29
	l0.007-0.044L6.1,12.981z M1.188,17.306h0.009l-0.009,0.01V17.306z M1.301,17.376l5.605,1.741l-3.829,4.319l-0.022-0.004
	L1.301,17.376z M3.185,23.626l6.24,1.385l0.025,0.064l-2.471,3.233L3.185,23.626z M9.498,25.196l3.237,5.526l-5.756-2.157
	L9.498,25.196z M12.799,30.813l0.013-0.059l-0.077-0.032l-3.091-5.585l6.24,1.036l-0.03,0.046l0,0L12.799,30.813z M16.013,26.273
	v-0.002l0.016-0.043l0.031,0.049l-0.031-0.049l3.271-5.324l-3.362,5.184l-3.308-5.083l0.168-0.232l0.027,0.08l-0.116,0.176
	l6.557-0.278l0.167,0.233l0,0l0.036,0.157l0.063-0.023l2.797,3.912l-0.012,0.002l0.021,0.01l0.037,0.057l-0.009,0.019l-6.271,1.235
	l-0.063-0.064l-0.075,0.058L16.013,26.273z M24.905,19.34v-0.005l3.864,4.108h-0.012l-0.06,0.069l-6.168,1.421l2.346-5.619
	l0.006,0.004L24.905,19.34z M22.385,25.118h-0.013l0.004-0.016L22.385,25.118z M24.875,19.305l-2.499,5.61L19.592,21.1l5.234-1.864
	L24.875,19.305z M16.2,26.497l6.164-1.38l-3.054,5.591L16.2,26.497z M19.54,30.629l2.827-5.512h0.027l2.343,3.272L19.54,30.629z
	 M24.881,28.334l0.113-0.049L24.881,28.334l-2.37-3.232l6.186-1.583l-3.648,5.033L24.881,28.334z M25.006,19.201L25.006,19.201
	l-0.025-0.023l0.046-0.014l-0.054,0.011l-3.525-4.615l3.376,4.667L19.49,20.97l-0.159-0.218l0.167-0.007l0.125,0.166l1.763-6.349
	l0.289-0.083h0.048v-0.021l4.362-1.364l-0.979,6.068l-0.079,0.029l0.022,0.067L25.006,19.201z M25.273,19.111l0.812-6.015
	l0.152-0.053l4.483,4.379L25.273,19.111z"/>
<g>
	<g>
		<defs>
			<path id="SVGID_1_" d="M14.869,1.186c0,0.656,0.513,1.18,1.161,1.18c0.662,0,1.183-0.524,1.183-1.18
				C17.213,0.533,16.692,0,16.03,0C15.382,0,14.869,0.533,14.869,1.186"/>
		</defs>
		<use xlink:href="#SVGID_1_"  overflow="visible" fill="#FF0000"/>
		<clipPath id="SVGID_2_">
			<use xlink:href="#SVGID_1_"  overflow="visible"/>
		</clipPath>
		<rect x="14.869" clip-path="url(#SVGID_2_)" fill="#FF0000" width="2.344" height="2.366"/>
	</g>
	<g>
		<defs>
			<path id="SVGID_3_" d="M9.541,1.406C8.927,1.605,8.586,2.275,8.79,2.89c0.198,0.626,0.86,0.968,1.481,0.763
				c0.612-0.202,0.955-0.872,0.747-1.486c-0.158-0.503-0.626-0.823-1.115-0.823C9.778,1.344,9.653,1.363,9.541,1.406"/>
		</defs>
		<use xlink:href="#SVGID_3_"  overflow="visible" fill="#FF0000"/>
		<clipPath id="SVGID_4_">
			<use xlink:href="#SVGID_3_"  overflow="visible"/>
		</clipPath>
		<rect x="8.586" y="1.344" clip-path="url(#SVGID_4_)" fill="#FF0000" width="2.641" height="2.514"/>
	</g>
	<g>
		<defs>
			<path id="SVGID_5_" d="M20.878,2c-0.207,0.618,0.128,1.289,0.745,1.493c0.621,0.197,1.285-0.144,1.483-0.761
				c0.206-0.62-0.131-1.291-0.757-1.491c-0.116-0.04-0.237-0.056-0.356-0.056C21.49,1.185,21.037,1.497,20.878,2"/>
		</defs>
		<use xlink:href="#SVGID_5_"  overflow="visible" fill="#FF0000"/>
		<clipPath id="SVGID_6_">
			<use xlink:href="#SVGID_5_"  overflow="visible"/>
		</clipPath>
		<rect x="20.671" y="1.185" clip-path="url(#SVGID_6_)" fill="#FF0000" width="2.641" height="2.505"/>
	</g>
	<g>
		<defs>
			<path id="SVGID_7_" d="M14.869,6.196c0,0.651,0.513,1.184,1.161,1.184c0.662,0,1.183-0.533,1.183-1.184
				c0-0.648-0.522-1.182-1.183-1.182C15.382,5.014,14.869,5.548,14.869,6.196"/>
		</defs>
		<use xlink:href="#SVGID_7_"  overflow="visible" fill="#FF0000"/>
		<clipPath id="SVGID_8_">
			<use xlink:href="#SVGID_7_"  overflow="visible"/>
		</clipPath>
		<rect x="14.869" y="5.014" clip-path="url(#SVGID_8_)" fill="#FF0000" width="2.344" height="2.366"/>
	</g>
	<g>
		<defs>
			<path id="SVGID_9_" d="M0.545,10.76c-0.206,0.622,0.133,1.293,0.756,1.49c0.613,0.204,1.274-0.135,1.483-0.759
				c0.201-0.614-0.148-1.285-0.767-1.49C1.902,9.966,1.772,9.944,1.66,9.944C1.167,9.944,0.697,10.26,0.545,10.76"/>
		</defs>
		<use xlink:href="#SVGID_9_"  overflow="visible" fill="#FF0000"/>
		<clipPath id="SVGID_10_">
			<use xlink:href="#SVGID_9_"  overflow="visible"/>
		</clipPath>
		<rect x="0.34" y="9.944" clip-path="url(#SVGID_10_)" fill="#FF0000" width="2.645" height="2.509"/>
	</g>
	<g>
		<defs>
			<path id="SVGID_11_" d="M0,17.294c0,0.658,0.531,1.186,1.186,1.186c0.644,0,1.169-0.529,1.169-1.186
				c0-0.646-0.525-1.181-1.169-1.181C0.531,16.113,0,16.648,0,17.294"/>
		</defs>
		<use xlink:href="#SVGID_11_"  overflow="visible" fill="#FF0000"/>
		<clipPath id="SVGID_12_">
			<use xlink:href="#SVGID_11_"  overflow="visible"/>
		</clipPath>
		<rect y="16.113" clip-path="url(#SVGID_12_)" fill="#FF0000" width="2.355" height="2.367"/>
	</g>
	<g>
		<defs>
			<path id="SVGID_13_" d="M4.033,5.244C3.648,5.769,3.769,6.503,4.292,6.891c0.517,0.383,1.256,0.27,1.638-0.261
				c0.377-0.524,0.271-1.262-0.261-1.647C5.462,4.835,5.225,4.755,4.982,4.755C4.619,4.755,4.256,4.923,4.033,5.244"/>
		</defs>
		<use xlink:href="#SVGID_13_"  overflow="visible" fill="#FF0000"/>
		<clipPath id="SVGID_14_">
			<use xlink:href="#SVGID_13_"  overflow="visible"/>
		</clipPath>
		<rect x="3.648" y="4.755" clip-path="url(#SVGID_14_)" fill="#FF0000" width="2.659" height="2.52"/>
	</g>
	<g>
		<defs>
			<path id="SVGID_15_" d="M5.003,12.469c-0.201,0.626,0.134,1.29,0.75,1.495c0.613,0.195,1.282-0.143,1.481-0.764
				c0.203-0.618-0.136-1.285-0.753-1.487c-0.116-0.039-0.25-0.059-0.361-0.059C5.626,11.654,5.16,11.973,5.003,12.469"/>
		</defs>
		<use xlink:href="#SVGID_15_"  overflow="visible" fill="#FF0000"/>
		<clipPath id="SVGID_16_">
			<use xlink:href="#SVGID_15_"  overflow="visible"/>
		</clipPath>
		<rect x="4.802" y="11.654" clip-path="url(#SVGID_16_)" fill="#FF0000" width="2.635" height="2.505"/>
	</g>
	<g>
		<defs>
			<path id="SVGID_17_" d="M5.994,27.706c-0.382,0.52-0.271,1.267,0.253,1.652c0.529,0.376,1.262,0.266,1.651-0.267
				c0.376-0.527,0.258-1.268-0.264-1.647c-0.21-0.154-0.453-0.222-0.691-0.222C6.572,27.222,6.224,27.385,5.994,27.706"/>
		</defs>
		<use xlink:href="#SVGID_17_"  overflow="visible" fill="#FF0000"/>
		<clipPath id="SVGID_18_">
			<use xlink:href="#SVGID_17_"  overflow="visible"/>
		</clipPath>
		<rect x="5.612" y="27.222" clip-path="url(#SVGID_18_)" fill="#FF0000" width="2.662" height="2.513"/>
	</g>
	<g>
		<defs>
			<path id="SVGID_19_" d="M11.665,30.453c-0.201,0.62,0.136,1.286,0.75,1.488c0.627,0.202,1.285-0.136,1.486-0.757
				c0.203-0.623-0.139-1.29-0.76-1.494c-0.118-0.039-0.232-0.057-0.352-0.057C12.288,29.634,11.83,29.955,11.665,30.453"/>
		</defs>
		<use xlink:href="#SVGID_19_"  overflow="visible" fill="#FF0000"/>
		<clipPath id="SVGID_20_">
			<use xlink:href="#SVGID_19_"  overflow="visible"/>
		</clipPath>
		<rect x="11.463" y="29.634" clip-path="url(#SVGID_20_)" fill="#FF0000" width="2.639" height="2.509"/>
	</g>
	<g>
		<defs>
			<path id="SVGID_21_" d="M2.304,22.541C1.771,22.925,1.66,23.663,2.045,24.2c0.371,0.527,1.115,0.638,1.641,0.257
				c0.519-0.384,0.635-1.124,0.258-1.649c-0.225-0.321-0.59-0.491-0.954-0.491C2.756,22.317,2.511,22.39,2.304,22.541"/>
		</defs>
		<use xlink:href="#SVGID_21_"  overflow="visible" fill="#FF0000"/>
		<clipPath id="SVGID_22_">
			<use xlink:href="#SVGID_21_"  overflow="visible"/>
		</clipPath>
		<rect x="1.66" y="22.317" clip-path="url(#SVGID_22_)" fill="#FF0000" width="2.66" height="2.521"/>
	</g>
	<g>
		<defs>
			<path id="SVGID_23_" d="M8.545,24.38c-0.383,0.535-0.267,1.272,0.256,1.655c0.528,0.383,1.258,0.267,1.642-0.263
				c0.384-0.532,0.265-1.266-0.259-1.653C9.975,23.969,9.741,23.9,9.498,23.9C9.13,23.9,8.776,24.063,8.545,24.38"/>
		</defs>
		<use xlink:href="#SVGID_23_"  overflow="visible" fill="#FF0000"/>
		<clipPath id="SVGID_24_">
			<use xlink:href="#SVGID_23_"  overflow="visible"/>
		</clipPath>
		<rect x="8.162" y="23.9" clip-path="url(#SVGID_24_)" fill="#FF0000" width="2.666" height="2.518"/>
	</g>
	<g>
		<defs>
			<path id="SVGID_25_" d="M24.31,27.427c-0.522,0.381-0.644,1.12-0.259,1.65c0.384,0.525,1.121,0.642,1.636,0.264
				c0.535-0.387,0.647-1.122,0.262-1.656c-0.23-0.322-0.587-0.491-0.943-0.491C24.765,27.195,24.528,27.275,24.31,27.427"/>
		</defs>
		<use xlink:href="#SVGID_25_"  overflow="visible" fill="#FF0000"/>
		<clipPath id="SVGID_26_">
			<use xlink:href="#SVGID_25_"  overflow="visible"/>
		</clipPath>
		<rect x="23.666" y="27.195" clip-path="url(#SVGID_26_)" fill="#FF0000" width="2.668" height="2.524"/>
	</g>
	<g>
		<defs>
			<path id="SVGID_27_" d="M27.863,22.798c-0.38,0.529-0.273,1.269,0.259,1.647c0.532,0.387,1.268,0.27,1.644-0.258
				c0.38-0.524,0.259-1.266-0.265-1.645c-0.207-0.157-0.45-0.228-0.684-0.228C28.453,22.313,28.092,22.482,27.863,22.798"/>
		</defs>
		<use xlink:href="#SVGID_27_"  overflow="visible" fill="#FF0000"/>
		<clipPath id="SVGID_28_">
			<use xlink:href="#SVGID_27_"  overflow="visible"/>
		</clipPath>
		<rect x="27.483" y="22.313" clip-path="url(#SVGID_28_)" fill="#FF0000" width="2.663" height="2.52"/>
	</g>
	<g>
		<defs>
			<path id="SVGID_29_" d="M18.993,29.663c-0.608,0.2-0.954,0.869-0.754,1.494c0.206,0.615,0.869,0.958,1.486,0.756
				c0.623-0.205,0.957-0.869,0.757-1.493c-0.164-0.497-0.623-0.813-1.119-0.813C19.235,29.607,19.119,29.624,18.993,29.663"/>
		</defs>
		<use xlink:href="#SVGID_29_"  overflow="visible" fill="#FF0000"/>
		<clipPath id="SVGID_30_">
			<use xlink:href="#SVGID_29_"  overflow="visible"/>
		</clipPath>
		<rect x="18.039" y="29.607" clip-path="url(#SVGID_30_)" fill="#FF0000" width="2.642" height="2.508"/>
	</g>
	<g>
		<defs>
			<path id="SVGID_31_" d="M21.763,24.102c-0.535,0.385-0.642,1.125-0.273,1.654c0.392,0.531,1.124,0.643,1.654,0.263
				c0.522-0.384,0.644-1.127,0.253-1.647c-0.231-0.323-0.587-0.491-0.957-0.491C22.21,23.88,21.964,23.954,21.763,24.102"/>
		</defs>
		<use xlink:href="#SVGID_31_"  overflow="visible" fill="#FF0000"/>
		<clipPath id="SVGID_32_">
			<use xlink:href="#SVGID_31_"  overflow="visible"/>
		</clipPath>
		<rect x="21.121" y="23.88" clip-path="url(#SVGID_32_)" fill="#FF0000" width="2.668" height="2.519"/>
	</g>
	<g>
		<defs>
			<path id="SVGID_33_" d="M30.174,10.392c-0.611,0.205-0.948,0.865-0.75,1.493c0.21,0.62,0.863,0.961,1.48,0.761
				c0.627-0.203,0.96-0.869,0.76-1.497c-0.162-0.495-0.62-0.815-1.121-0.815C30.419,10.334,30.298,10.354,30.174,10.392"/>
		</defs>
		<use xlink:href="#SVGID_33_"  overflow="visible" fill="#FF0000"/>
		<clipPath id="SVGID_34_">
			<use xlink:href="#SVGID_33_"  overflow="visible"/>
		</clipPath>
		<rect x="29.227" y="10.334" clip-path="url(#SVGID_34_)" fill="#FF0000" width="2.638" height="2.511"/>
	</g>
	<g>
		<defs>
			<path id="SVGID_35_" d="M29.647,17.404c0,0.652,0.528,1.179,1.167,1.179c0.662,0,1.186-0.526,1.186-1.179
				c0-0.654-0.525-1.181-1.186-1.181C30.174,16.223,29.647,16.751,29.647,17.404"/>
		</defs>
		<use xlink:href="#SVGID_35_"  overflow="visible" fill="#FF0000"/>
		<clipPath id="SVGID_36_">
			<use xlink:href="#SVGID_35_"  overflow="visible"/>
		</clipPath>
		<rect x="29.647" y="16.223" clip-path="url(#SVGID_36_)" fill="#FF0000" width="2.353" height="2.36"/>
	</g>
	<g>
		<defs>
			<path id="SVGID_37_" d="M25.72,11.714c-0.614,0.201-0.948,0.869-0.759,1.487c0.21,0.621,0.867,0.965,1.484,0.764
				c0.618-0.205,0.955-0.869,0.763-1.495c-0.168-0.497-0.623-0.815-1.124-0.815C25.96,11.654,25.844,11.675,25.72,11.714"/>
		</defs>
		<use xlink:href="#SVGID_37_"  overflow="visible" fill="#FF0000"/>
		<clipPath id="SVGID_38_">
			<use xlink:href="#SVGID_37_"  overflow="visible"/>
		</clipPath>
		<rect x="24.772" y="11.654" clip-path="url(#SVGID_38_)" fill="#FF0000" width="2.629" height="2.511"/>
	</g>
	<g>
		<defs>
			<path id="SVGID_39_" d="M14.869,11.129c0,0.653,0.513,1.183,1.161,1.183c0.662,0,1.183-0.53,1.183-1.183
				c0-0.655-0.522-1.183-1.183-1.183C15.382,9.946,14.869,10.474,14.869,11.129"/>
		</defs>
		<use xlink:href="#SVGID_39_"  overflow="visible" fill="#FF0000"/>
		<clipPath id="SVGID_40_">
			<use xlink:href="#SVGID_39_"  overflow="visible"/>
		</clipPath>
		<rect x="14.869" y="9.946" clip-path="url(#SVGID_40_)" fill="#FF0000" width="2.35" height="2.367"/>
	</g>
	<g>
		<defs>
			<path id="SVGID_41_" d="M14.869,16.174c0,0.645,0.513,1.173,1.161,1.173c0.662,0,1.183-0.528,1.183-1.173
				c0-0.663-0.522-1.185-1.183-1.185C15.382,14.989,14.869,15.511,14.869,16.174"/>
		</defs>
		<use xlink:href="#SVGID_41_"  overflow="visible" fill="#FF0000"/>
		<clipPath id="SVGID_42_">
			<use xlink:href="#SVGID_41_"  overflow="visible"/>
		</clipPath>
		<rect x="14.869" y="14.989" clip-path="url(#SVGID_42_)" fill="#FF0000" width="2.35" height="2.358"/>
	</g>
	<g>
		<defs>
			<path id="SVGID_43_" d="M9.431,14.067c-0.197,0.619,0.142,1.29,0.754,1.493c0.629,0.198,1.288-0.144,1.481-0.761
				c0.204-0.62-0.125-1.288-0.753-1.492c-0.124-0.035-0.237-0.055-0.362-0.055C10.06,13.253,9.593,13.574,9.431,14.067"/>
		</defs>
		<use xlink:href="#SVGID_43_"  overflow="visible" fill="#FF0000"/>
		<clipPath id="SVGID_44_">
			<use xlink:href="#SVGID_43_"  overflow="visible"/>
		</clipPath>
		<rect x="9.234" y="13.253" clip-path="url(#SVGID_44_)" fill="#FF0000" width="2.636" height="2.505"/>
	</g>
	<g>
		<defs>
			<path id="SVGID_45_" d="M11.763,20.253c-0.386,0.527-0.27,1.271,0.267,1.647c0.514,0.389,1.255,0.273,1.627-0.255
				c0.383-0.53,0.265-1.273-0.244-1.651c-0.212-0.152-0.468-0.226-0.703-0.226C12.344,19.767,11.982,19.937,11.763,20.253"/>
		</defs>
		<use xlink:href="#SVGID_45_"  overflow="visible" fill="#FF0000"/>
		<clipPath id="SVGID_46_">
			<use xlink:href="#SVGID_45_"  overflow="visible"/>
		</clipPath>
		<rect x="11.377" y="19.767" clip-path="url(#SVGID_46_)" fill="#FF0000" width="2.663" height="2.522"/>
	</g>
	<g>
		<defs>
			<path id="SVGID_47_" d="M18.855,19.932c-0.531,0.383-0.638,1.125-0.258,1.652c0.376,0.527,1.115,0.642,1.638,0.263
				c0.516-0.387,0.651-1.121,0.258-1.653c-0.228-0.323-0.58-0.485-0.951-0.485C19.301,19.708,19.058,19.776,18.855,19.932"/>
		</defs>
		<use xlink:href="#SVGID_47_"  overflow="visible" fill="#FF0000"/>
		<clipPath id="SVGID_48_">
			<use xlink:href="#SVGID_47_"  overflow="visible"/>
		</clipPath>
		<rect x="18.218" y="19.708" clip-path="url(#SVGID_48_)" fill="#FF0000" width="2.669" height="2.517"/>
	</g>
	<g>
		<defs>
			<path id="SVGID_49_" d="M21.228,13.211c-0.607,0.207-0.951,0.866-0.747,1.493c0.2,0.621,0.863,0.959,1.483,0.76
				c0.618-0.205,0.948-0.868,0.754-1.492c-0.167-0.5-0.621-0.818-1.121-0.818C21.478,13.154,21.356,13.172,21.228,13.211"/>
		</defs>
		<use xlink:href="#SVGID_49_"  overflow="visible" fill="#FF0000"/>
		<clipPath id="SVGID_50_">
			<use xlink:href="#SVGID_49_"  overflow="visible"/>
		</clipPath>
		<rect x="20.277" y="13.154" clip-path="url(#SVGID_50_)" fill="#FF0000" width="2.635" height="2.508"/>
	</g>
	<g>
		<defs>
			<path id="SVGID_51_" d="M9.471,8.154c-0.2,0.62,0.139,1.29,0.753,1.493c0.628,0.202,1.282-0.14,1.486-0.758
				c0.195-0.624-0.142-1.287-0.756-1.493c-0.125-0.04-0.244-0.058-0.359-0.058C10.091,7.339,9.636,7.652,9.471,8.154"/>
		</defs>
		<use xlink:href="#SVGID_51_"  overflow="visible" fill="#FF0000"/>
		<clipPath id="SVGID_52_">
			<use xlink:href="#SVGID_51_"  overflow="visible"/>
		</clipPath>
		<rect x="9.271" y="7.339" clip-path="url(#SVGID_52_)" fill="#FF0000" width="2.633" height="2.51"/>
	</g>
	<g>
		<defs>
			<path id="SVGID_53_" d="M6.085,18.381c-0.371,0.523-0.259,1.264,0.267,1.652c0.52,0.374,1.253,0.264,1.638-0.267
				c0.38-0.529,0.264-1.263-0.267-1.652c-0.204-0.147-0.45-0.221-0.689-0.221C6.672,17.894,6.32,18.061,6.085,18.381"/>
		</defs>
		<use xlink:href="#SVGID_53_"  overflow="visible" fill="#FF0000"/>
		<clipPath id="SVGID_54_">
			<use xlink:href="#SVGID_53_"  overflow="visible"/>
		</clipPath>
		<rect x="5.714" y="17.894" clip-path="url(#SVGID_54_)" fill="#FF0000" width="2.656" height="2.513"/>
	</g>
	<g>
		<defs>
			<path id="SVGID_55_" d="M15.235,25.307c-0.535,0.38-0.644,1.123-0.261,1.649c0.379,0.533,1.116,0.649,1.633,0.266
				c0.531-0.387,0.641-1.129,0.265-1.654c-0.235-0.321-0.596-0.484-0.945-0.484C15.681,25.084,15.44,25.154,15.235,25.307"/>
		</defs>
		<use xlink:href="#SVGID_55_"  overflow="visible" fill="#FF0000"/>
		<clipPath id="SVGID_56_">
			<use xlink:href="#SVGID_55_"  overflow="visible"/>
		</clipPath>
		<rect x="14.592" y="25.084" clip-path="url(#SVGID_56_)" fill="#FF0000" width="2.657" height="2.52"/>
	</g>
	<g>
		<defs>
			<path id="SVGID_57_" d="M24.604,18.174c-0.62,0.196-0.963,0.868-0.759,1.485c0.195,0.622,0.864,0.964,1.486,0.757
				c0.614-0.198,0.955-0.867,0.754-1.486c-0.17-0.502-0.623-0.82-1.124-0.82C24.841,18.109,24.714,18.133,24.604,18.174"/>
		</defs>
		<use xlink:href="#SVGID_57_"  overflow="visible" fill="#FF0000"/>
		<clipPath id="SVGID_58_">
			<use xlink:href="#SVGID_57_"  overflow="visible"/>
		</clipPath>
		<rect x="23.641" y="18.109" clip-path="url(#SVGID_58_)" fill="#FF0000" width="2.645" height="2.513"/>
	</g>
	<g>
		<defs>
			<path id="SVGID_59_" d="M20.493,8.659c0,0.652,0.522,1.185,1.182,1.185c0.635,0,1.171-0.532,1.171-1.189
				c0-0.648-0.537-1.182-1.171-1.182C21.015,7.473,20.493,8.008,20.493,8.659"/>
		</defs>
		<use xlink:href="#SVGID_59_"  overflow="visible" fill="#FF0000"/>
		<clipPath id="SVGID_60_">
			<use xlink:href="#SVGID_59_"  overflow="visible"/>
		</clipPath>
		<rect x="20.493" y="7.473" clip-path="url(#SVGID_60_)" fill="#FF0000" width="2.353" height="2.371"/>
	</g>
	<g>
		<defs>
			<path id="SVGID_61_" d="M27.124,4.755c-0.648,0-1.174,0.531-1.174,1.186c0,0.652,0.526,1.182,1.174,1.172
				c0.647,0.01,1.177-0.521,1.177-1.172C28.301,5.289,27.77,4.755,27.124,4.755L27.124,4.755"/>
		</defs>
		<use xlink:href="#SVGID_61_"  overflow="visible" fill="#FF0000"/>
		<clipPath id="SVGID_62_">
			<use xlink:href="#SVGID_61_"  overflow="visible"/>
		</clipPath>
		<rect x="25.949" y="4.755" clip-path="url(#SVGID_62_)" fill="#FF0000" width="2.352" height="2.368"/>
	</g>
</g>
</svg>
